<?xml version="1.0" encoding="UTF-8"?>
<svg width="472px" height="193px" viewBox="0 0 472 193" version="1.1" xmlns="http://www.w3.org/2000/svg" xmlns:xlink="http://www.w3.org/1999/xlink">
    <title>Group 2@1.5x</title>
    <g id="Page-1" stroke="none" stroke-width="1" fill="none" fill-rule="evenodd">
        <g id="01" transform="translate(-149.000000, -274.000000)" fill="#FFFFFF">
            <g id="Group-2" transform="translate(149.000000, 274.000000)">
                <g id="Chit-Chat" fill-rule="nonzero">
                    <path d="M59.5113438,82.0420581 C56.9517161,83.8785226 53.6921902,85.1959863 49.7327661,85.9944492 C45.7733421,86.792912 41.7139325,87.1921435 37.5545375,87.1921435 C32.5152705,87.1921435 27.7359657,86.4136422 23.216623,84.8566396 C18.6972804,83.2996371 14.7178592,80.7844791 11.2783595,77.3111657 C7.8388598,73.8378523 5.09925829,69.3265371 3.05955497,63.7772203 C1.01985166,58.2279035 0,51.500854 0,43.5960717 C0,35.3719044 1.13983421,28.4851623 3.41950262,22.9358454 C5.69917103,17.3865286 8.65874055,12.9151366 12.2982112,9.52166951 C15.9376818,6.12820239 19.9970913,3.69289069 24.4764398,2.21573442 C28.9557882,0.738578138 33.4351367,0 37.9144852,0 C42.7137871,0 46.7731966,0.319385141 50.0927138,0.958155423 C53.4122309,1.5969257 56.1518325,2.35546541 58.3115183,3.23377455 L55.0719895,17.1270282 C53.2322571,16.248719 51.0525742,15.6099488 48.5329407,15.2107173 C46.0133072,14.8114859 42.9537522,14.6118702 39.3542757,14.6118702 C32.7152414,14.6118702 27.376018,16.9673356 23.3366056,21.6782664 C19.2971931,26.3891973 17.2774869,33.6951324 17.2774869,43.5960717 C17.2774869,47.9077711 17.7574171,51.8402007 18.7172775,55.3933604 C19.6771379,58.9465201 21.1369255,61.9806789 23.0966405,64.4958369 C25.0563554,67.0109949 27.4960006,68.9672289 30.4155759,70.3645389 C33.3351513,71.7618488 36.7146597,72.4605038 40.5541012,72.4605038 C44.1535777,72.4605038 47.1931355,72.1011956 49.6727749,71.382579 C52.1524142,70.6639624 54.3121001,69.7457301 56.1518325,68.6278822 L59.5113438,82.0420581 Z" id="Path"></path>
                    <path d="M106.064572,85.5153715 L106.064572,51.500854 C106.064572,46.6302306 105.384671,43.116994 104.024869,40.9611443 C102.665067,38.8052946 100.185428,37.7273698 96.5859511,37.7273698 C93.9463351,37.7273698 91.526687,38.6256405 89.327007,40.4221819 C87.1273269,42.2187233 85.6675393,44.514304 84.947644,47.308924 L84.947644,85.5153715 L69.3499127,85.5153715 L69.3499127,1.67677199 L84.947644,1.67677199 L84.947644,32.3377455 L85.4275742,32.3377455 C87.3472949,29.7826644 89.7069517,27.7465841 92.5065445,26.2295047 C95.3061373,24.7124253 98.8656195,23.9538856 103.184991,23.9538856 C106.224549,23.9538856 108.904159,24.353117 111.223822,25.1515798 C113.543485,25.9500427 115.483202,27.2675064 117.042976,29.103971 C118.602749,30.9404355 119.76258,33.4356319 120.522469,36.5895602 C121.282359,39.7434885 121.662304,43.6359949 121.662304,48.2670794 L121.662304,85.5153715 L106.064572,85.5153715 Z" id="Path"></path>
                    <path d="M136.180192,25.6306576 L151.777923,25.6306576 L151.777923,85.5153715 L136.180192,85.5153715 L136.180192,25.6306576 Z M133.900524,8.74316823 C133.900524,6.42762596 134.760398,4.4514304 136.480148,2.81458155 C138.199898,1.17773271 140.579552,0.359308284 143.61911,0.359308284 C146.658668,0.359308284 149.11831,1.17773271 150.998037,2.81458155 C152.877763,4.4514304 153.817627,6.42762596 153.817627,8.74316823 C153.817627,11.0587105 152.877763,12.9949829 150.998037,14.5519855 C149.11831,16.108988 146.658668,16.8874893 143.61911,16.8874893 C140.579552,16.8874893 138.199898,16.108988 136.480148,14.5519855 C134.760398,12.9949829 133.900524,11.0587105 133.900524,8.74316823 Z" id="Shape"></path>
                    <path d="M160.776614,25.6306576 L169.05541,25.6306576 L169.05541,14.3723313 L184.653141,9.94086251 L184.653141,25.6306576 L199.291012,25.6306576 L199.291012,38.8052946 L184.653141,38.8052946 L184.653141,61.8010248 C184.653141,65.9530316 185.07308,68.9273057 185.912958,70.7238471 C186.752836,72.5203886 188.332606,73.4186593 190.652269,73.4186593 C192.252036,73.4186593 193.631835,73.2589667 194.791667,72.9395816 C195.951498,72.6201964 197.251309,72.1411187 198.691099,71.5023484 L201.450698,83.4792912 C199.291012,84.5172929 196.771379,85.395602 193.891798,86.1142186 C191.012216,86.8328352 188.092641,87.1921435 185.133072,87.1921435 C179.613874,87.1921435 175.554465,85.7748719 172.954843,82.9403288 C170.355221,80.1057857 169.05541,75.4547395 169.05541,68.9871904 L169.05541,38.8052946 L160.776614,38.8052946 L160.776614,25.6306576 Z" id="Path"></path>
                    <path d="M118.824607,181.849915 C116.26498,183.686379 113.005454,185.003843 109.04603,185.802306 C105.086606,186.600769 101.027196,187 96.867801,187 C91.828534,187 87.0492292,186.221499 82.5298866,184.664496 C78.0105439,183.107494 74.0311227,180.592336 70.591623,177.119022 C67.1521233,173.645709 64.4125218,169.134394 62.3728185,163.585077 C60.3331152,158.03576 59.3132635,151.308711 59.3132635,143.403928 C59.3132635,135.179761 60.4530977,128.293019 62.7327661,122.743702 C65.0124346,117.194385 67.9720041,112.722993 71.6114747,109.329526 C75.2509453,105.936059 79.3103549,103.500747 83.7897033,102.023591 C88.2690518,100.546435 92.7484002,99.8078565 97.2277487,99.8078565 C102.027051,99.8078565 106.08646,100.127242 109.405977,100.766012 C112.725494,101.404782 115.465096,102.163322 117.624782,103.041631 L114.385253,116.934885 C112.545521,116.056576 110.365838,115.417805 107.846204,115.018574 C105.326571,114.619342 102.267016,114.419727 98.6675393,114.419727 C92.0285049,114.419727 86.6892816,116.775192 82.6498691,121.486123 C78.6104567,126.197054 76.5907504,133.502989 76.5907504,143.403928 C76.5907504,147.715628 77.0706806,151.648057 78.030541,155.201217 C78.9904014,158.754377 80.4501891,161.788535 82.409904,164.303693 C84.369619,166.818851 86.8092641,168.775085 89.7288394,170.172395 C92.6484148,171.569705 96.0279232,172.26836 99.8673647,172.26836 C103.466841,172.26836 106.506399,171.909052 108.986038,171.190436 C111.465678,170.471819 113.625364,169.553587 115.465096,168.435739 L118.824607,181.849915 Z" id="Path"></path>
                    <path d="M165.377836,185.323228 L165.377836,151.308711 C165.377836,146.438087 164.697935,142.924851 163.338133,140.769001 C161.97833,138.613151 159.498691,137.535226 155.899215,137.535226 C153.259599,137.535226 150.839951,138.433497 148.640271,140.230038 C146.44059,142.02658 144.980803,144.322161 144.260908,147.116781 L144.260908,185.323228 L128.663176,185.323228 L128.663176,101.484629 L144.260908,101.484629 L144.260908,132.145602 L144.740838,132.145602 C146.660558,129.590521 149.020215,127.554441 151.819808,126.037361 C154.619401,124.520282 158.178883,123.761742 162.498255,123.761742 C165.537813,123.761742 168.217423,124.160974 170.537086,124.959436 C172.856748,125.757899 174.796466,127.075363 176.356239,128.911827 C177.916012,130.748292 179.075844,133.243488 179.835733,136.397417 C180.595622,139.551345 180.975567,143.443851 180.975567,148.074936 L180.975567,185.323228 L165.377836,185.323228 Z" id="Path"></path>
                    <path d="M193.693717,128.911827 C196.893252,127.474594 200.692699,126.336785 205.092059,125.498399 C209.491419,124.660013 214.09075,124.24082 218.890052,124.24082 C223.049447,124.24082 226.528941,124.739859 229.328534,125.737938 C232.128127,126.736016 234.347804,128.153288 235.987565,129.989752 C237.627327,131.826217 238.787158,134.02199 239.467059,136.577071 C240.14696,139.132152 240.486911,142.006618 240.486911,145.20047 C240.486911,148.713706 240.366928,152.246904 240.126963,155.800064 C239.886998,159.353224 239.747019,162.846499 239.707024,166.279889 C239.66703,169.713279 239.767016,173.046862 240.006981,176.280636 C240.246946,179.514411 240.846859,182.568531 241.806719,185.442997 L229.088569,185.442997 L226.568935,177.178907 L225.969023,177.178907 C224.369255,179.654142 222.149578,181.79003 219.309991,183.586571 C216.470404,185.383113 212.810937,186.281383 208.331588,186.281383 C205.531995,186.281383 203.012362,185.86219 200.772688,185.023804 C198.533013,184.185418 196.613293,182.987724 195.013525,181.430722 C193.413758,179.873719 192.173938,178.037254 191.294066,175.921328 C190.414194,173.805401 189.974258,171.429974 189.974258,168.795047 C189.974258,165.122118 190.794139,162.028074 192.433901,159.512916 C194.073662,156.997758 196.433319,154.961678 199.512871,153.404675 C202.592423,151.847673 206.271888,150.769748 210.551265,150.170901 C214.830643,149.572054 219.609948,149.3924 224.88918,149.631939 C225.449098,145.160547 225.129145,141.946734 223.929319,139.9905 C222.729494,138.034266 220.049884,137.056149 215.890489,137.056149 C212.770942,137.056149 209.471422,137.375534 205.991928,138.014304 C202.512435,138.653074 199.65285,139.49146 197.413176,140.529462 L193.693717,128.911827 Z M213.490838,173.466055 C216.610384,173.466055 219.090023,172.7674 220.929756,171.37009 C222.769488,169.97278 224.12929,168.475662 225.009162,166.878736 L225.009162,159.093723 C222.529523,158.854184 220.149869,158.814261 217.870201,158.973954 C215.590532,159.133646 213.570826,159.492955 211.811082,160.051879 C210.051338,160.610803 208.651542,161.409266 207.611693,162.447267 C206.571844,163.485269 206.05192,164.802733 206.05192,166.399658 C206.05192,168.635354 206.711824,170.372011 208.031632,171.609629 C209.35144,172.847246 211.171175,173.466055 213.490838,173.466055 Z" id="Shape"></path>
                    <path d="M247.325916,125.438514 L255.604712,125.438514 L255.604712,114.180188 L271.202443,109.748719 L271.202443,125.438514 L285.840314,125.438514 L285.840314,138.613151 L271.202443,138.613151 L271.202443,161.608881 C271.202443,165.760888 271.622382,168.735162 272.46226,170.531704 C273.302138,172.328245 274.881908,173.226516 277.201571,173.226516 C278.801338,173.226516 280.181137,173.066823 281.340969,172.747438 C282.5008,172.428053 283.800611,171.948975 285.240401,171.310205 L288,183.287148 C285.840314,184.325149 283.320681,185.203459 280.441099,185.922075 C277.561518,186.640692 274.641943,187 271.682373,187 C266.163176,187 262.103767,185.582728 259.504145,182.748185 C256.904523,179.913642 255.604712,175.262596 255.604712,168.795047 L255.604712,138.613151 L247.325916,138.613151 L247.325916,125.438514 Z" id="Path"></path>
                </g>
                <g id="Group" transform="translate(308.000000, 39.000000)">
                    <path d="M82.4993916,25 C83.881723,25 85,23.9451331 85,22.6423324 L85,2.35766758 C85,1.05486685 83.881723,0 82.4993916,0 C81.118277,0 80,1.05486685 80,2.35766758 L80,22.6423324 C80,23.9451331 81.118277,25 82.4993916,25" id="Fill-40"></path>
                    <path d="M161.547801,78 L140.452199,78.0072922 C139.097162,78.0072922 138,79.1266407 138,80.5036461 C138,81.8830822 139.09955,83 140.452199,83 L161.547801,82.9927078 C162.902838,82.9927078 164,81.8733593 164,80.4963539 C164,79.1169178 162.90045,78 161.547801,78" id="Fill-41"></path>
                    <path d="M123.474478,42 C124.106875,42 124.740476,41.7700437 125.223507,41.311275 L140.274551,27.0105073 C141.241816,26.09297 141.241816,24.6056902 140.274551,23.6881529 C139.307285,22.7706157 137.743759,22.7706157 136.776493,23.6881529 L121.725449,37.9889207 C120.758184,38.9064579 120.758184,40.3937378 121.725449,41.311275 C122.207276,41.7700437 122.839672,42 123.474478,42" id="Fill-42"></path>
                    <path d="M26,80.5036461 C26,79.1266407 24.9028881,78.0072922 23.5467193,78.0072922 L2.45208687,78 C1.09949952,78 0,79.1169178 0,80.4963539 C0,81.8733593 1.09591809,82.9927078 2.45208687,82.9927078 L23.5467193,83 C24.9005005,83 26,81.8830822 26,80.5036461" id="Fill-43"></path>
                    <path d="M38.7757465,41.311275 C39.2600328,41.7700437 39.8924963,42 40.5261644,42 C41.1586279,42 41.792296,41.7700437 42.2753776,41.311275 C43.2415408,40.3937378 43.2415408,38.9064579 42.2753776,37.9889207 L27.2239523,23.6881529 C26.2577891,22.7706157 24.6916891,22.7706157 23.7255259,23.6881529 C22.758158,24.6056902 22.758158,26.09297 23.7255259,27.0105073 L38.7757465,41.311275" id="Fill-44"></path>
                    <path d="M36.4504409,72.2415463 C36.7405027,59.7602764 43.1062161,38.8415625 82.2537286,39.7315253 C99.5840192,40.0813174 111.98687,45.8683695 119.118057,56.9332682 C123.375106,63.5391778 125.316474,71.3687864 125.854472,79.0068694 L85.0255641,79.0068694 L85.0255641,64.5656169 L94.0198874,55.9939904 C94.9863589,55.0742092 94.9863589,53.5832921 94.0198874,52.6635109 C93.0546195,51.7437298 91.4899707,51.7437298 90.5234992,52.6635109 L80.8058267,61.9243999 C80.3424499,62.3670876 80.0812739,62.9646013 80.0812739,63.5896396 L80.0812739,79.0068694 L71.8572392,79.0068694 L71.8572392,63.5896396 C71.8572392,62.9646013 71.5960632,62.3670876 71.1326865,61.9243999 L61.4162175,52.6635109 C60.449746,51.7437298 58.8863008,51.7437298 57.9210329,52.6635109 C56.9557649,53.5832921 56.9557649,55.0742092 57.9210329,55.9939904 L66.9129491,64.5656169 L66.9129491,79.0068694 L35.9918784,79.0068694 C36.2566652,76.4895132 36.4095193,74.0317937 36.4504409,72.2415463 Z M82.3596433,35.0202272 C37.276094,34.1646702 31.7745482,60.6731764 31.5061507,72.1360353 C31.4170861,76.0250352 30.7960409,82.9417437 29.7441155,86.045145 L21.1578044,107.828591 C20.8725569,108.551112 20.9784716,109.363089 21.4394412,109.998449 C21.9016144,110.633809 22.6622744,111.012272 23.4734846,111.012272 L34.8352419,111.012272 L34.8352419,127.358458 C34.8352419,133.248728 39.8661895,138.042599 46.0501629,138.042599 L58.2941414,138.042599 L58.2941414,151.410392 C58.2941414,152.71093 59.4002278,153.764894 60.7674901,153.764894 C62.1335488,153.764894 63.2396352,152.71093 63.2396352,151.410392 L63.2396352,135.688097 C63.2396352,134.385265 62.1335488,133.331301 60.7674901,133.331301 L46.0501629,133.331301 C42.5910856,133.331301 39.7783285,130.652238 39.7783285,127.358458 L39.7783285,108.656623 C39.7783285,107.354938 38.6734457,106.302121 37.307387,106.302121 L27.0396803,106.302121 L34.4103796,87.6002863 C34.7738595,86.5291197 35.0807714,85.1792662 35.3419474,83.7170206 L126.00853,83.7170206 C125.986866,93.9171874 123.691646,103.21707 121.273662,108.008648 C116.035699,118.387725 109.88663,124.298637 105.651246,127.429563 C101.098118,130.797889 98.488765,135.76379 98.488765,141.053105 L98.488765,151.644351 C98.488765,152.947183 99.5948514,154 100.959707,154 C102.326969,154 103.431852,152.947183 103.431852,151.644351 L103.431852,141.053105 C103.431852,137.228329 105.346741,133.619163 108.68185,131.151122 C113.337282,127.710544 120.0749,121.25602 125.730504,110.051204 C130.848109,99.9060867 135.39883,73.1888521 123.330573,54.4698144 C115.263004,41.9495512 101.477244,35.4067188 82.3596433,35.0202272 L82.3596433,35.0202272 Z" id="Fill-45"></path>
                </g>
            </g>
        </g>
    </g>
</svg>