<?xml version="1.0" encoding="UTF-8"?>
<svg width="40px" height="40px" viewBox="0 0 68 68" version="1.1" xmlns="http://www.w3.org/2000/svg" xmlns:xlink="http://www.w3.org/1999/xlink">
    <title>Group 5</title>
    <defs>
        <circle id="path-1" cx="23" cy="23" r="23"></circle>
        <filter x="-35.9%" y="-35.9%" width="171.7%" height="171.7%" filterUnits="objectBoundingBox" id="filter-2">
            <feMorphology radius="1.5" operator="dilate" in="SourceAlpha" result="shadowSpreadOuter1"></feMorphology>
            <feOffset dx="0" dy="0" in="shadowSpreadOuter1" result="shadowOffsetOuter1"></feOffset>
            <feGaussianBlur stdDeviation="4" in="shadowOffsetOuter1" result="shadowBlurOuter1"></feGaussianBlur>
            <feColorMatrix values="0 0 0 0 0.149019608   0 0 0 0 0.149019608   0 0 0 0 0.149019608  0 0 0 0.2 0" type="matrix" in="shadowBlurOuter1"></feColorMatrix>
        </filter>
    </defs>
    <g id="Page-1" stroke="none" stroke-width="1" fill="none" fill-rule="evenodd">
        <g id="17" transform="translate(-685.000000, -20.000000)">
            <g id="Group-5" transform="translate(696.000000, 31.000000)">
                <g id="Oval">
                    <use fill="black" fill-opacity="1" filter="url(#filter-2)" xlink:href="#path-1"></use>
                    <use fill="#FFFFFF" fill-rule="evenodd" xlink:href="#path-1"></use>
                </g>
                <g id="Group-4" transform="translate(5.000000, 11.000000)"></g>
                <path d="M6.47943843,26.9102951 L9.38458987,27.8511121 L9.38458987,28.3035796 C9.38458987,31.9960693 12.4160955,35 16.1430467,35 L29.8569533,35 C33.5839045,35 36.616405,31.9960693 36.616405,28.3035796 L36.616405,27.8511121 L39.5225514,26.9098022 C40.3652443,26.6348715 41,25.7650299 41,24.8864149 L41,20.4624854 C41,19.5839689 40.3652443,18.7140287 39.5225514,18.4389994 L36.605461,17.486649 C36.4920407,13.8918489 33.5122706,11 29.8569533,11 L16.1430467,11 C12.4877294,11 9.50795932,13.8921447 9.39453902,17.4874376 L6.4774486,18.4391966 C5.63575061,18.7143244 5,19.5842647 5,20.4624854 L5,24.8864149 C5,25.7650299 5.63575061,26.6348715 6.47943843,26.9102951 L6.47943843,26.9102951 Z" id="Fill-15" fill="#262626"></path>
                <path d="M6.32721645,20.4624854 C6.32721645,20.1591646 6.60181296,19.7826012 6.8923281,19.6875732 L9.38458987,18.8748075 L9.38458987,23.6796377 C9.38458987,24.0424989 9.68107451,24.3367507 10.0472032,24.3367507 C10.4143268,24.3367507 10.7108114,24.0424989 10.7108114,23.6796377 L10.7108114,17.696519 C10.7108114,14.7287659 13.1473579,12.314423 16.1430467,12.314423 L29.8569533,12.314423 C32.8526421,12.314423 35.2891886,14.7287659 35.2891886,17.696519 L35.2891886,23.6796377 C35.2891886,24.0424989 35.5866681,24.3367507 35.9527968,24.3367507 C36.3189255,24.3367507 36.616405,24.0424989 36.616405,23.6796377 L36.616405,18.8740189 L39.1076719,19.6872774 C39.398187,19.7822069 39.6737785,20.1589674 39.6737785,20.4624854 L39.6737785,24.8864149 C39.6737785,25.1898343 39.398187,25.5665948 39.1086668,25.6611299 L35.7468494,26.7500092 C35.4742428,26.8382355 35.2891886,27.0902963 35.2891886,27.3745918 L35.2891886,28.3035796 C35.2891886,31.2713326 32.8526421,33.6856756 29.8569533,33.6856756 L16.1430467,33.6856756 C13.1473579,33.6856756 10.7108114,31.2713326 10.7108114,28.3035796 L10.7108114,27.3745918 C10.7108114,27.0902963 10.5267522,26.8382355 10.2541455,26.7500092 L6.89332302,25.6616228 C6.60181296,25.5665948 6.32721645,25.1898343 6.32721645,24.8864149 L6.32721645,20.4624854 Z" id="Path" fill="#F6F6F6"></path>
                <path d="M18.4732557,26.4029851 L27.1649353,26.4029851 C30.1055484,26.4029851 32.4974874,24.0327689 32.4974874,21.1192046 C32.4974874,18.2060371 30.1055484,15.8358209 27.1649353,15.8358209 L18.4732557,15.8358209 C15.5326425,15.8358209 13.1407035,18.2060371 13.1407035,21.1192046 C13.1407035,24.0327689 15.5326425,26.4029851 18.4732557,26.4029851 L18.4732557,26.4029851 Z" id="Fill-16" fill="#262626"></path>
                <path d="M18.4732557,17.1586261 L27.1649353,17.1586261 C29.368643,17.1586261 31.1628475,18.9353954 31.1628475,21.1192046 C31.1628475,23.3032122 29.368643,25.0801798 27.1649353,25.0801798 L18.4732557,25.0801798 C16.269548,25.0801798 14.4763446,23.3032122 14.4763446,21.1192046 C14.4763446,18.9353954 16.269548,17.1586261 18.4732557,17.1586261 Z" id="Path" fill="#262626"></path>
                <path d="M26.4367109,23 C26.7863059,23 27.0703518,22.7002594 27.0703518,22.3306295 L27.0703518,20.2663855 C27.0703518,19.8966551 26.7863059,19.5970149 26.4367109,19.5970149 C26.087116,19.5970149 25.8040201,19.8966551 25.8040201,20.2663855 L25.8040201,22.3306295 C25.8040201,22.7002594 26.087116,23 26.4367109,23" id="Fill-10" fill="#A871F0"></path>
                <path d="M19.5628141,23 C19.9121469,23 20.1959799,22.7002594 20.1959799,22.3306295 L20.1959799,20.2663855 C20.1959799,19.8966551 19.9121469,19.5970149 19.5628141,19.5970149 C19.2134812,19.5970149 18.9296482,19.8966551 18.9296482,20.2663855 L18.9296482,22.3306295 C18.9296482,22.7002594 19.2134812,23 19.5628141,23" id="Fill-11" fill="#A871F0"></path>
                <path d="M6.00756136,21.4016767 C6.0238622,20.4616806 6.04671986,19.5613597 6.07613436,18.7007141 C7.04111308,18.8003796 9.52447763,19.0503941 10.238939,19.821991 C10.9534003,20.5935879 10.8121211,25.3117666 10.5277926,25.1722164 C10.526657,25.1769799 10.0908827,25.7546463 8.77060572,26.1668119 C7.72700373,26.4926049 6.83198801,26.7830343 6.08555857,27.0381002 L6.00756136,21.4016767 Z" id="Path-3-Copy" fill="#A871F0" transform="translate(8.383777, 22.869407) scale(-1, 1) translate(-8.383777, -22.869407) "></path>
                <path d="M35.2753544,23.4818802 C35.2494952,21.1346817 35.2512728,19.5307597 35.2806873,18.670114 C36.2456661,18.7697795 38.9169163,19.1496799 39.6313776,19.9212769 C40.3458389,20.6928738 40.2045597,25.4110525 39.9202312,25.2715023 C39.9190957,25.2762658 39.4833213,25.8539322 38.1630444,26.2660978 C37.1194424,26.5918908 36.1831693,26.8812137 35.3542252,27.1340666 L35.2753544,23.4818802 Z" id="Path-3-Copy-2" fill="#A871F0"></path>
            </g>
        </g>
    </g>
</svg>